<?xml version="1.0" encoding="UTF-8" standalone="no"?>
<!DOCTYPE svg PUBLIC "-//W3C//DTD SVG 1.1//EN" "http://www.w3.org/Graphics/SVG/1.1/DTD/svg11.dtd">
<svg class="logo" xmlns:dc="http://purl.org/dc/elements/1.1/" xmlns="http://www.w3.org/2000/svg" version="1.1" xmlns:xl="http://www.w3.org/1999/xlink" viewBox="0 0 544 512" width="544" height="512">
  <defs/>
  <metadata> Produced by OmniGraffle 7.9.4
    <dc:date>2018-12-28 04:28:12 +0000</dc:date>
  </metadata>
  <g id="Canvas_1" fill="none" stroke-opacity="1" fill-opacity="1" stroke-dasharray="none" stroke="none">
    <title>Canvas 1</title>
    <g id="Canvas_1: Layer 1">
      <title>Layer 1</title>
      <g id="Graphic_2">
        <path fill="white" d="M 511.92 228.22 C 513.8608 220.71763 514.84197 212.99934 514.84 205.25 C 514.84 172.25 498.15 142.25 471.1 124.64 C 470.69 84.91 441.69 51.84 403.64 44.86 C 389.87 17.77 361.78 0 330.32 0 C 307.56 0 286.93 9.22 272 24.1 C 257.07 9.22 236.44 0 213.68 0 C 182.23 0 154.13 17.77 140.37 44.86 C 102.32 51.84 73.31 84.91 72.91 124.64 C 45.85 142.25 29.17 172.25 29.17 205.25 C 29.17 212.98 30.14 220.67 32.09 228.22 C 11.94 246.33 0 272.2 0 299.5 C 0 332.48 16.72 362.53 43.74 380.14 C 44.21 427.64 82.2 466.39 129.59 468.42 C 145.52 495.08 174.46 512 206.39 512 C 232.36 512 255.6 500.8 272 483.21 C 288.4 500.8 311.64 512 337.61 512 C 369.54 512 398.48 495.08 414.41 468.42 C 461.8 466.39 499.79 427.64 500.26 380.14 C 527.28 362.53 544 332.48 544 299.5 C 544 272.2 532.06 246.33 511.92 228.22 Z M 247.87 138.07 C 247.87 164.16 229.78 185.95 205.44 192.11 C 201.96 192.99 199.6 196.2 199.6 199.77 L 199.6 215.95 C 199.6 221.02 204.3 224.86 209.3 223.84 C 223.76 220.9 236.89 214.43 247.87 205.45 L 247.87 422.75 C 247.87 445.5 229.27 464 206.39 464 C 173.46 464 166.92 434.55 160.76 416.38 L 140.49 419.74 C 116.48 423.69 92 404.41 92 379.26 C 92 376.48 96.65 351.84 96.65 351.84 L 78.4 344.3 C 41.49 329.09 37.13 278.17 72.93 257.69 L 92.47 246.5 L 82.57 226.36 C 65.02 190.66 93.98 166.03 107.71 160.42 L 126.63 152.69 C 121.6 130.79 121.16 129.89 121.16 125.5 C 121.16 106.75 136.49 91.5 153.02 91.36 L 175.9 92.56 L 180.74 73.61 C 184.61 58.53 198.15 48 213.68 48 C 232.54 48 247.87 63.25 247.87 82 Z M 465.6 344.3 L 447.34 351.83 C 447.34 351.83 451.99 376.47 451.99 379.25 C 451.99 404.41 427.51 423.69 403.5 419.73 L 383.23 416.37 C 377.08 434.54 370.53 463.99 337.6 463.99 C 314.72 463.99 296.12 445.49 296.12 422.74 L 296.12 205.44 C 307.09 214.42 320.23 220.89 334.69 223.83 C 339.69 224.85 344.39 221.01 344.39 215.94 L 344.39 199.76 C 344.39 196.19 342.03 192.98 338.55 192.1 C 314.22 185.94 296.12 164.15 296.12 138.06 L 296.12 82 C 296.12 63.25 311.45 48 330.31 48 C 345.83 48 359.38 58.53 363.24 73.61 L 368.08 92.56 L 390.96 91.36 C 407.49 91.5 422.82 106.75 422.82 125.5 C 422.82 129.89 422.38 130.79 417.35 152.69 L 436.27 160.42 C 450 166.02 478.96 190.65 461.41 226.36 L 451.51 246.5 L 471.05 257.69 C 506.87 278.17 502.51 329.09 465.6 344.3 Z"/>
      </g>
    </g>
  </g>
</svg>
